<svg width="37" height="38" viewBox="0 0 37 38" fill="none" xmlns="http://www.w3.org/2000/svg">
<path d="M23.2422 26.3733C24.8139 26.9302 26.5045 27.0637 28.1442 26.7603C29.7838 26.4569 31.3147 25.7272 32.583 24.6447C33.8513 23.5621 34.8123 22.1648 35.3694 20.5932C35.9266 19.0216 36.0603 17.331 35.7571 15.6913C35.4538 14.0517 34.7244 12.5207 33.642 11.2523C32.5596 9.98386 31.1625 9.02267 29.5909 8.46531C28.0193 7.90795 26.3288 7.77405 24.6891 8.07708C23.0494 8.3801 21.5183 9.10937 20.2497 10.1916M7.13816 20.0953C5.7801 21.4119 4.84595 23.1038 4.45535 24.9545C4.06475 26.8052 4.23548 28.7303 4.94568 30.4834C5.65588 32.2365 6.87322 33.7376 8.44178 34.7946C10.0103 35.8516 11.8587 36.4163 13.7502 36.4163C15.974 36.418 18.128 35.6394 19.8368 34.2162C21.5456 32.793 22.701 30.8155 23.1017 28.628C23.5023 26.4406 23.1229 24.1819 22.0295 22.2454C20.9361 20.3089 19.198 18.8174 17.1179 18.0307M10.5835 20.583C11.8311 20.583 13.0664 20.3373 14.219 19.8599C15.3716 19.3824 16.4189 18.6827 17.301 17.8005C18.1832 16.9184 18.8829 15.8711 19.3604 14.7185C19.8378 13.5659 20.0835 12.3306 20.0835 11.083C20.0835 9.83545 19.8378 8.60011 19.3604 7.44752C18.8829 6.29492 18.1832 5.24765 17.301 4.36549C16.4189 3.48334 15.3716 2.78357 14.219 2.30615C13.0664 1.82873 11.8311 1.58301 10.5835 1.58301C8.06394 1.58301 5.64758 2.5839 3.86598 4.36549C2.08439 6.14709 1.0835 8.56345 1.0835 11.083C1.0835 13.6026 2.08439 16.0189 3.86598 17.8005C5.64758 19.5821 8.06394 20.583 10.5835 20.583ZM9.79183 9.49967L12.1668 11.083L9.79183 12.6663V9.49967Z" stroke="black" stroke-width="2"/>
</svg>
