<svg width="30" height="31" viewBox="0 0 30 31" fill="none" xmlns="http://www.w3.org/2000/svg">
<path d="M19.9031 2.99616e-05C17.2684 0.00021559 14.7417 1.06596 12.8787 2.96285C11.0156 4.85974 9.96893 7.43242 9.96875 10.115V10.353H0V30.667H20.2125V20.223C22.8232 20.1467 25.2993 19.0264 27.1048 17.1049C28.9103 15.1833 29.8998 12.615 29.8591 9.95608C29.8184 7.29714 28.7508 4.76149 26.8875 2.89811C25.0241 1.03472 22.5149 -0.0064386 19.9031 2.99616e-05ZM3.4375 27.167V13.853H9.96875V20.23H16.775V27.167H3.4375ZM20.2125 16.723C20.1094 16.73 20.0063 16.73 19.9031 16.73H13.4062V10.115C13.4063 8.82014 13.7797 7.55376 14.48 6.47289C15.1803 5.39201 16.1768 4.54418 17.3459 4.0345C18.515 3.52483 19.8053 3.37572 21.0569 3.60568C22.3084 3.83563 23.4662 4.43453 24.3866 5.32812C25.307 6.22171 25.9496 7.3707 26.2347 8.63263C26.5197 9.89456 26.4348 11.2139 25.9904 12.4272C25.546 13.6404 24.7616 14.6942 23.7345 15.4578C22.7074 16.2214 21.4828 16.6614 20.2125 16.723Z" fill="white"/>
</svg>
